<svg width="512" height="512" viewbox="0 0 "><path style="fill:#000" d="M100.5 383.363c-13.677-3.374-19.348-10.374-20.26-25.012l-.515-8.246-3.113.698c-5.417 1.214-24.852.763-28.948-.671-4.989-1.748-10.227-6.406-12.973-11.537-1.995-3.728-2.22-5.807-2.516-23.208l-.324-19.114-6.989-.65c-12.052-1.12-18.14-4.944-22.479-14.123C.138 276.75.02 275.475.02 256s.118-20.75 2.363-25.5c4.34-9.18 10.427-13.004 22.48-14.124l6.988-.65.324-19.113c.296-17.4.521-19.48 2.516-23.208 2.746-5.13 7.984-9.79 12.973-11.537 4.096-1.434 23.53-1.885 28.948-.67l3.113.697.514-8.246c.591-9.473 2.78-14.703 8.116-19.388C94.28 129.06 97.4 128.5 120.5 128.5c23.221 0 25.296.45 31.721 6.875 6.619 6.619 6.733 7.392 6.757 45.875L159 216h194l.022-34.75c.024-38.483.138-39.256 6.757-45.875 6.425-6.425 8.5-6.875 31.721-6.875 23.1 0 26.22.56 32.145 5.761 5.336 4.685 7.525 9.915 8.116 19.388l.514 8.246 3.113-.698c5.417-1.214 24.852-.763 28.948.671 4.989 1.748 10.227 6.406 12.973 11.537 1.995 3.728 2.22 5.807 2.516 23.208l.325 19.114 6.988.65c12.053 1.12 18.14 4.944 22.479 14.123 2.245 4.75 2.364 6.025 2.364 25.5s-.119 20.75-2.364 25.5c-4.34 9.18-10.426 13.004-22.48 14.124l-6.987.65-.325 19.113c-.296 17.4-.521 19.48-2.516 23.208-2.746 5.13-7.984 9.79-12.973 11.537-4.096 1.434-23.53 1.885-28.948.67l-3.113-.697-.514 8.246c-.591 9.473-2.78 14.703-8.116 19.388-5.925 5.202-9.044 5.761-32.145 5.761-23.221 0-25.296-.45-31.721-6.875-6.619-6.619-6.733-7.392-6.757-45.875L353 296H159l-.022 34.75c-.024 38.483-.138 39.256-6.757 45.875-6.266 6.266-8.706 6.834-30.221 7.043-10.725.103-20.4-.034-21.5-.305zm40.922-17.287L144 363.65V148.35l-2.58-2.425c-2.549-2.393-2.826-2.424-21.973-2.424-18.845 0-19.456.064-21.67 2.277l-2.277 2.277-.5 72.054c-.485 69.867-.559 72.097-2.441 73.473-3.224 2.356-8.123 1.788-10.486-1.216-2.04-2.592-2.073-3.515-2.073-56.944v-54.31l-2.413-2.805c-2.386-2.774-2.547-2.806-13.973-2.806-10.695 0-11.729.17-13.836 2.278l-2.278 2.278v151.888l2.278 2.278c2.105 2.105 3.146 2.278 13.722 2.278 14.571 0 15.642-.775 16.56-11.991.705-8.625 2.53-11.509 7.28-11.509 1.736 0 4.02.93 5.346 2.174 2.282 2.145 2.314 2.477 2.329 24.25.01 15.697.377 22.793 1.27 24.556 2.324 4.595 4.78 5.077 24.387 4.788 17.68-.26 18.242-.334 20.75-2.692zm272.803.147 2.275-2.277.5-72.054c.485-69.867.559-72.097 2.441-73.473 3.224-2.356 8.123-1.788 10.486 1.216 2.04 2.592 2.073 3.515 2.073 56.944v54.31l2.413 2.805c2.386 2.774 2.547 2.806 13.973 2.806 10.695 0 11.729-.17 13.836-2.278l2.278-2.278V180.056l-2.278-2.278c-2.105-2.105-3.146-2.278-13.722-2.278-14.571 0-15.642.775-16.56 11.991-.423 5.178-1.173 8.11-2.43 9.499-2.497 2.758-7.574 2.636-10.282-.247-2.014-2.145-2.135-3.414-2.424-25.474-.397-30.304 1.817-27.769-24.251-27.769-19.147 0-19.424.03-21.972 2.424L368 148.35V363.65l2.25 2.047c1.238 1.126 2.925 2.308 3.75 2.627.825.319 9.701.488 19.725.377 17.497-.194 18.315-.293 20.5-2.48zM32 256v-25h-4.032c-5.058 0-10.475 2.21-11.888 4.85-1.45 2.711-1.452 37.586-.001 40.297 1.442 2.695 6.462 4.766 11.671 4.814L32 281Zm320.5 0v-24.5h-193l-.269 23.48c-.148 12.913-.049 24.053.22 24.754.394 1.025 19.45 1.226 96.77 1.021l96.279-.255Zm138.952 23.585c1.863-.779 3.873-2.324 4.468-3.435.66-1.233 1.08-9.074 1.08-20.15 0-11.076-.42-18.917-1.08-20.15-1.413-2.64-6.83-4.85-11.888-4.85H480v50h4.032c2.218 0 5.557-.637 7.42-1.415z"/></svg>