<svg width="512" height="512" xmlns="http://www.w3.org/2000/svg"><path style="fill:#000" d="M318.5 510.556c-27.604-5.296-46.757-20.075-65.839-50.806l-1.707-2.75h-94.888c-90.319 0-95.18-.091-100.975-1.895-15.24-4.743-26.41-16.717-30.6-32.798C23.247 417.525 23 406.223 23 353.806v-62.774l2.75-3.051c1.76-1.953 4.09-3.263 6.473-3.642 3.304-.525 4.122-.194 7.25 2.934L43 290.8v62.474c0 68.504-.122 66.997 6.03 74.763 1.738 2.195 5.514 5.065 8.762 6.66L63.5 437.5l89.75.28c49.362.155 89.75.083 89.75-.16s-1.091-4.644-2.425-9.78c-4.308-16.586-5.077-23.375-5.028-44.34.04-16.908.398-21.623 2.315-30.5 7.536-34.91 23.906-59.424 47.943-71.794 7.561-3.892 10.544-5.025 18.874-7.17l4.178-1.075-2.904-6.404c-5.816-12.826-8.45-26.89-5.923-31.612 2.16-4.039 6.663-5.267 16.937-4.622 15.651.982 28.143 5.885 37.47 14.706l5.115 4.837 2.77-5.183 2.771-5.183-.297-90.5c-.273-83.383-.431-90.747-2.017-93.644-2.39-4.367-7.25-9.027-12.145-11.645-3.92-2.096-5.514-2.227-30.755-2.52l-26.622-.309-.456 5.5c-.566 6.827-4.136 12.568-9.462 15.212-3.656 1.815-7.373 1.92-77.839 2.185-82.24.31-79.396.52-85.399-6.317-3.098-3.528-5.086-8.901-5.095-13.772L115 40.88l-26.75.31c-23.8.276-27.136.515-30.25 2.172-4.886 2.6-9.789 7.423-12.338 12.138-2.151 3.98-2.164 4.39-2.662 83-.526 83.045-.469 82.075-4.957 84.477-2.46 1.316-7.633 1.313-10.098-.007C22.917 220.28 23 221.672 23 139.6 23 58.64 23.079 57.12 27.789 47 31.136 39.808 41.743 29.223 49 25.836 57.997 21.636 63.393 21 90.05 21c23.093 0 24.95-.13 24.956-1.75.023-7.272 6.5-16.463 12.842-18.225C130.164.382 158.375.01 204.934.005 277.728 0 278.407.019 282.75 2.122c5.38 2.604 9.312 8.252 10 14.36l.51 4.519 25.12.015c27.585.016 33.934.867 42.98 5.762 8.05 4.355 15.162 12.015 19.405 20.901L384.5 55.5l.278 81.25c.153 44.688.436 81.25.629 81.25s2.838-1.498 5.878-3.329C402.02 208.208 419.92 204 436.681 204c16.161 0 18.799 3.091 15.876 18.61-3.576 18.986-11.602 37.26-21.165 48.192l-4.348 4.97 8.228 3.956c19.013 9.141 34.246 26.29 43.3 48.74 23.02 57.093 5.951 133.907-36.918 166.133-8.06 6.058-17.518 10.754-28.366 14.081l-8.788 2.696-39.5.26c-29.829.197-41.214-.068-46.5-1.082zm88.946-20.979c11.261-3.299 21.267-9.333 30.068-18.135 21.645-21.644 34.307-63.133 30.569-100.162-4.128-40.893-22.153-68.303-50.583-76.921-4.564-1.384-9.111-1.8-19-1.736-11.057.07-14.495.503-23 2.896-12.364 3.48-14.524 3.488-27 .097-13.096-3.56-27.249-4.402-37.5-2.232-18.996 4.022-34.291 16.461-43.793 35.616-12.86 25.928-15.73 59.932-7.72 91.5 8.343 32.885 25.943 56.506 49.513 66.452 10.515 4.437 16.848 4.964 56 4.655 31.171-.246 37.368-.543 42.446-2.03zM346.23 266.72c-1.645-2.933-5.074-6.87-7.829-8.99-4.574-3.52-14.138-7.317-16.47-6.54-1.578.527 5.513 13.88 9.34 17.589 2.692 2.61 4.685 3.487 9.78 4.308 3.519.566 6.635 1.27 6.924 1.562.289.292.673-.198.854-1.089.181-.891-.988-3.969-2.599-6.84zm36.423 6.25c3.216-.527 8.14-.96 10.942-.963 4.204-.005 6.133-.677 11.028-3.84 11.181-7.227 19.2-18.741 24.473-35.137 1.508-4.688 2.62-8.646 2.472-8.794-.703-.704-15.332 2-20.854 3.854-12.393 4.161-22.963 12.655-29.383 23.609-2.435 4.155-6.373 14.629-7.757 20.632-.57 2.475-.41 2.752 1.29 2.213 1.068-.339 4.574-1.047 7.79-1.574zM273 32V20H135v11.333c0 6.234.3 11.634.667 12 .366.367 31.416.667 69 .667H273ZM130.5 400.445c-8.786-1.919-21.413-7.898-28.198-13.353C92.42 379.147 83.06 364.046 79.93 351c-1.695-7.063-1.695-21.937 0-29 7.862-32.774 40.026-54.928 72.59-49.999 25.531 3.865 44.601 19.954 53.22 44.903 2.268 6.562 2.624 9.23 2.618 19.596-.006 10.588-.346 12.997-2.89 20.476-8.788 25.835-31.677 43.193-58.727 44.538-6.172.307-11.567-.048-16.242-1.07zm28.092-21.477c14.945-5.141 26.544-18.922 29.418-34.95 5.433-30.3-22.841-57.876-52.914-51.605-29.44 6.138-44.845 37.371-31.646 64.162 5.998 12.174 19.1 22.094 32.265 24.43 6.35 1.126 16.244.246 22.877-2.037zm-32.367-24.077C115.622 345.258 114 343.11 114 338.71c0-5.506 4.296-9.711 9.92-9.711 3.291 0 4.859.709 8.157 3.689l4.084 3.689 11.67-12.206c10.967-11.472 11.9-12.205 15.496-12.189 5.455.024 9.673 4.344 9.673 9.905 0 4.511.245 4.175-16.86 23.112-13.468 14.911-14.776 15.989-19.415 15.995-3.225.004-4.757-.886-10.5-6.104zM28.11 262.604C19.44 257.8 23.068 244 33 244c5.067 0 10 4.885 10 9.903 0 7.508-8.297 12.356-14.89 8.701zm65.198-20.614c-3.198-1.288-5.712-5.707-5.595-9.834.076-2.692.887-4.303 3.21-6.379L94.032 223h79.937c59.846 0 80.596.3 82.559 1.195 1.442.657 3.263 2.434 4.047 3.95 2.322 4.49 1.766 7.714-1.975 11.455l-3.4 3.4-79.85-.063c-43.918-.035-80.836-.461-82.042-.947zm-.095-52.497c-6.43-2.793-7.513-11.38-2.018-16.004L94.153 171h190l2.924 2.923c5.072 5.072 3.743 13-2.625 15.662-5.077 2.12-186.347 2.034-191.24-.092zm-1.974-53.038c-4.548-3.186-4.541-12.174.012-15.68 2.103-1.618 9.868-1.732 119.576-1.753L328.154 119l2.923 2.923c3.831 3.831 3.956 8.696.334 13L328.822 138H211.134c-104.511 0-117.936-.173-119.895-1.545Z"/></svg>