<svg width="512" height="512" xmlns="http://www.w3.org/2000/svg"><path style="display:inline;fill:#000" d="M87.5 495.037C57.107 491.404 32.004 468.911 24.96 439c-1.614-6.85-4.247-41.687-13.565-179.5C4.41 156.203.068 86.093.427 82.42 2.872 57.396 18.217 35.033 40.5 24.02c13.744-6.794 18.011-7.417 51.219-7.471 28.337-.047 29.282.015 31.312 2.042 2.84 2.835 2.885 7.938.097 10.728-2.122 2.124-3.008 2.196-33.404 2.727-29.275.51-31.576.685-36.87 2.783-18.99 7.527-32.668 23.919-36.453 43.685-1.496 7.808-1.27 11.805 10.022 177.987 6.354 93.5 11.82 171.8 12.149 174 3.115 20.89 17.757 38.978 37.428 46.234l7.5 2.766h345l7.5-2.766c19.67-7.256 34.313-25.344 37.428-46.234.328-2.2 5.795-80.5 12.149-174C496.87 90.318 497.095 86.32 495.599 78.513c-3.782-19.75-17.324-35.995-36.453-43.73L453.5 32.5 299.278 32l-154.223-.5-2.182-2.182c-2.788-2.788-2.744-7.892.093-10.728l2.09-2.09h152.222c170.985 0 157.866-.566 174.222 7.519 22.283 11.014 37.628 33.377 40.073 58.401.36 3.673-3.983 73.783-10.968 177.08-9.318 137.813-11.95 172.65-13.564 179.5-6.163 26.167-25.126 45.872-52.148 54.19l-7.393 2.274-167 .145c-91.85.08-169.7-.177-173-.572zm-1.176-46.675c-9.144-3.24-16.577-13.041-17.885-23.582C67.483 417.073 46 96.667 46 90.116c0-3.511.53-8.15 1.176-10.31 1.635-5.457 8.287-12.647 14.286-15.44L66.5 62.02h379l5 2.37c10.366 4.915 15.5 13.357 15.5 25.486 0 6.937-21.474 327.016-22.51 335.511-1.252 10.274-8.837 19.84-18.285 23.059-3.671 1.25-9.705 1.554-30.929 1.554H367.91l-2.566-2.566c-2.07-2.07-2.448-3.182-1.952-5.75 1.249-6.467 2.176-6.684 28.595-6.684 13.07 0 25.164-.28 26.875-.622 4.073-.815 7.91-4.747 9.036-9.262.497-1.989 5.99-79.073 12.208-171.298 12.46-184.81 12.032-170.922 5.395-174.977-2.88-1.76-10.404-1.834-189-1.836-175.133-.002-186.196.1-189.363 1.747-1.85.961-4.082 2.97-4.962 4.466-1.49 2.531-.825 14.2 9.713 170.5 6.222 92.28 11.718 169.41 12.215 171.398 1.126 4.515 4.963 8.447 9.036 9.262 1.711.342 58.57.622 126.351.622 123.165 0 123.242.001 125.875 2.073 3.444 2.709 3.592 7.679.32 10.753L343.372 450l-126.435-.079c-108.926-.068-127.014-.284-130.612-1.559ZM159 237.463c-5.881-1.826-11.317-6.416-13.87-11.712-1.126-2.338-5.726-19.326-10.221-37.751-9.423-38.624-9.972-43.813-5.642-53.272 4.1-8.956 10.154-14.607 22.472-20.977 28.52-14.749 62.312-21.82 104.261-21.82 41.95 0 75.74 7.071 104.261 21.82 12.318 6.37 18.372 12.021 22.472 20.977 4.327 9.452 3.778 14.667-5.591 53.031-4.468 18.293-8.824 34.937-9.68 36.987-3.036 7.265-10.513 12.694-18.962 13.768-4.095.521-7.015 0-16.138-2.878-24.572-7.753-47.14-11.006-76.362-11.006-29.103 0-51.645 3.234-76.193 10.93-12.04 3.775-14.155 3.969-20.807 1.903zm19.143-16.928c6.246-1.905 13.27-3.948 15.607-4.538 4.956-1.252 4.908-.994 2.75-14.997-.805-5.225-1.472-10.512-1.482-11.75-.027-3.346 3.416-6.25 7.41-6.25 5.404 0 6.945 2.905 9.035 17.03l1.805 12.192 4.693-.622c3.73-.495 27.052-2.48 30.289-2.577.412-.013.75-8.053.75-17.868 0-16.613.139-17.97 2.013-19.667 1.107-1.002 3.351-1.821 4.987-1.821 1.636 0 3.88.82 4.987 1.821 1.874 1.696 2.013 3.054 2.013 19.667 0 9.815.338 17.855.75 17.868 3.237.098 26.56 2.082 30.289 2.577l4.693.622 1.805-12.193c2.09-14.124 3.631-17.029 9.036-17.029 3.993 0 7.436 2.904 7.41 6.25-.01 1.238-.678 6.525-1.483 11.75-2.158 14.003-2.206 13.745 2.75 14.997 2.337.59 9.36 2.633 15.607 4.538 6.246 1.906 12.184 3.465 13.194 3.465 1.01 0 2.99-1.012 4.399-2.25 2.245-1.973 3.553-6.38 10.611-35.75 4.428-18.425 8.08-35.525 8.116-38 .124-8.631-3.786-13.988-14.544-19.927-14.948-8.25-37.46-15.313-58.913-18.481-17.811-2.63-15.06-4.975-23.666 20.161C264.59 154.471 263.007 157 256 157c-7.007 0-8.59-2.53-17.054-27.247-8.607-25.136-5.855-22.791-23.666-20.161-21.454 3.168-43.965 10.23-58.913 18.481-10.76 5.94-14.67 11.299-14.541 19.927.077 5.128 14.352 65.786 16.657 70.782 1.377 2.982 4.163 4.988 7.16 5.155.629.035 6.254-1.496 12.5-3.402zM260.755 119l4.172-12h-17.854l4.172 12c2.295 6.6 4.434 12 4.755 12 .32 0 2.46-5.4 4.755-12z"/></svg>