<?xml version="1.0" encoding="UTF-8"?>
<svg id="Doctolib_blue" data-name="Doctolib blue" xmlns="http://www.w3.org/2000/svg" viewBox="0 0 100.6 113.03">
  <defs>
    <style>
      .cls-1 {
        fill: #2479bf;
        stroke-width: 0px;
      }
    </style>
  </defs>
  <path id="D" class="cls-1" d="M99.54,54.94c3.02-16.5,3.02-49.14-48.84-54.62C36.99-1.12,15.77,2.52.51,5.21c-.17.06-.31.18-.4.36-.15.3-.14.74.01,1.16.35,1.24,1.91,3.36,3.68,4.24,1.36.68,4.51.49,4.94.45,47.27-4.22,81.14,6.11,74.98,40.67-3.56,19.96-16.67,44.89-52.79,44.89-7.31,0-8.23-.62-7.33-6.51.12-.76,11.26-60.6,11.96-66.64.04-.24-.1-.45-.32-.49-.35-.05-8.3-1.91-10.2,5.67-.4,1.62-19.41,72.41-20.29,76.12-1.23,5.19,2.29,7.88,25.53,7.88,58.74,0,67.5-48.42,69.26-58.08Z"/>
</svg>