<svg width="512" height="512" xmlns="http://www.w3.org/2000/svg"><path style="fill:#000" d="M119.086 510.317c-5.342-1.928-12.373-8.703-14.16-13.646-1.165-3.22-1.585-3.535-3.866-2.892-1.408.396-12.91.721-25.56.721-26.05 0-27.522-.354-34.762-8.368-6.34-7.018-6.738-9.96-6.738-49.814V401H23.968c-11.132 0-14.939-1.118-19.154-5.627C.43 390.686 0 388.123 0 366.751c0-18.383.18-20.493 2.096-24.45 1.398-2.887 3.51-5.158 6.338-6.815C12.23 333.26 13.789 333 23.283 333H33.89l.305-37.75c.295-36.494.377-37.883 2.467-41.75 2.557-4.73 7.471-9.556 12.338-12.119 2.804-1.476 6.34-1.915 17.787-2.206 12.725-.324 14.235-.545 13.803-2.02-3.142-10.741-4.289-52.13-1.764-63.655 8.85-40.385 29.967-69.21 66.696-91.034 1.638-.973 1.622-1.264-.276-5-5.15-10.135-7.493-20.402-8-35.06-.591-17.065.425-20.3 7.45-23.713l4.383-2.13 8.71 2.168c13.143 3.27 16.946 3.495 28.816 1.704 25.81-3.896 46.877 1.213 59.848 14.512 2.174 2.23 4.238 4.053 4.586 4.053.349 0 2.97-3.938 5.824-8.75 6.313-10.643 15.862-22.378 20.947-25.743 17.152-11.35 40.588 2.492 38.941 23.002-.583 7.268-2.15 10.52-9.309 19.326-2.98 3.666-7.191 10.047-9.36 14.182l-3.94 7.516 13.179.068c62.884.322 112.741 41.757 125.4 104.217 2.911 14.367 2.133 52.345-1.32 64.337-.423 1.474 1.091 1.696 13.812 2.023 15.894.409 19.311 1.482 25.425 7.984 6.995 7.44 6.83 6.333 7.167 48.088l.305 37.75h10.607c9.494 0 11.052.26 14.85 2.486 2.827 1.657 4.94 3.928 6.337 6.816 1.916 3.958 2.096 6.064 2.096 24.546 0 22.036-.477 24.523-5.627 29.338-4.255 3.98-7.453 4.814-18.438 4.814H478v35.319c0 39.854-.398 42.795-6.738 49.813-7.24 8.014-8.712 8.368-34.762 8.368-12.65 0-24.152-.325-25.56-.721-2.28-.643-2.701-.328-3.866 2.892-1.94 5.368-8.855 11.763-14.88 13.765-4.348 1.444-8.507 1.654-27.41 1.383-25.074-.359-27.107-.867-33.754-8.437-6.67-7.597-6.5-6.188-6.827-56.632l-.297-45.75H188.094l-.297 45.75c-.327 50.444-.158 49.035-6.827 56.632-6.71 7.643-8.573 8.092-34.47 8.323-18.903.168-23.786-.079-27.414-1.388zm48.608-17.73 2.806-2.414V243.827l-2.806-2.414C164.932 239.037 164.582 239 145 239s-19.932.037-22.694 2.413l-2.806 2.414-.29 119.836c-.16 65.91-.017 121.35.316 123.199.334 1.849 1.681 4.436 2.995 5.75 2.358 2.358 2.638 2.388 22.378 2.388 19.69 0 20.032-.036 22.795-2.413zm221.785.025c1.314-1.314 2.661-3.901 2.995-5.75.333-1.85.475-57.289.316-123.199l-.29-119.836-2.806-2.414C386.932 239.037 386.582 239 367 239s-19.932.037-22.694 2.413l-2.806 2.414v246.346l2.806 2.414c2.763 2.377 3.106 2.413 22.795 2.413 19.74 0 20.02-.03 22.378-2.388zM100.09 475.139c1.853-2.29 1.91-5.519 1.91-108.295V260.909l-2.455-2.454C97.102 256.01 97 256 76.97 256H56.846l-2.923 2.923L51 261.846v210.308l2.98 2.98 2.98 2.98 20.61-.307c20.28-.302 20.64-.345 22.52-2.668zm357.987-.062 2.923-2.923V261.846l-2.923-2.923-2.923-2.923H435.03c-20.03 0-20.133.011-22.576 2.455L410 260.909V366.52c0 72.816.33 106.23 1.065 107.602.586 1.095 2.049 2.387 3.25 2.871 1.202.484 10.882.909 21.512.944l19.327.063ZM34 367v-17H17v34h17zm290 0v-17H188v34h136zm171 0v-17h-17v34h17zm-171-77.818c0-49.294.208-51.079 6.806-58.399 2.032-2.253 5.944-5.147 8.694-6.43 4.75-2.217 6.076-2.334 26.5-2.338 11.825-.002 23.176.462 25.225 1.03 5.595 1.554 11.936 6.898 15.064 12.694 2.45 4.54 3.057 5.069 5 4.35 1.643-.607 2.512-2.172 3.384-6.089 3.115-14.004 4.19-38.154 2.292-51.5-8.054-56.647-52.487-96.336-108.465-96.883-6.6-.064-14.1.242-16.666.682l-4.667.798-1.68 9.702c-2.493 14.387-3.23 16.708-6.773 21.354-4.782 6.27-11.479 9.356-20.193 9.308-8.01-.045-13.005-2.141-18.16-7.623-6.297-6.7-7.954-13.556-6.363-26.338l.498-4-4.998-1.252c-25.938-6.5-58.135-1.527-81.469 12.582-26.02 15.733-43.228 38.963-51.217 69.14-3.703 13.987-3.457 46.23.487 63.916.897 4.022 1.761 5.593 3.412 6.203 1.943.719 2.55.19 5-4.35 3.128-5.796 9.47-11.14 15.064-12.693 2.049-.57 13.4-1.033 25.225-1.03 20.534.003 21.725.11 26.5 2.371 5.901 2.795 10.7 7.563 13.2 13.113 1.634 3.63 1.827 8.226 2.097 49.75l.297 45.75H324ZM262.979 109.51c3.373-1.744 3.46-1.983 5.516-14.968 3.049-19.27 12.198-40.512 24.265-56.34 7.722-10.129 8.438-11.826 6.718-15.917-1.5-3.57-4.126-5.286-8.084-5.286-3.731 0-9.916 6.617-18.476 19.766-10.802 16.595-17.933 34.91-21.454 55.102-2.013 11.54-1.894 12.856 1.46 16.209 3.267 3.268 5.808 3.63 10.055 1.434zm-89.716-36.976c19.465-4.938 42.564-5.336 59.136-1.02 3.237.844 5.95 1.41 6.03 1.26.08-.152 1.119-3.372 2.31-7.158 2.144-6.812 2.147-6.92.271-10.597-3.187-6.248-12.08-13.536-19.746-16.184-6.012-2.076-8.209-2.299-19.764-2-26.682.69-39.12.64-43.25-.174l-4.25-.838.015 6.838c.018 8.45 2.044 17.307 5.909 25.83 1.623 3.58 3.102 6.508 3.286 6.508.185 0 4.709-1.11 10.053-2.465z"/></svg>